<svg width="24" height="24" viewBox="0 0 24 24" fill="none" xmlns="http://www.w3.org/2000/svg">
<path d="M15.7333 7.00939L16.6383 6.4971C16.7953 6.40826 16.9098 6.26194 16.9567 6.09033C17.0543 5.73296 16.838 5.36563 16.4735 5.26987L15.2931 4.95976C14.9701 4.87489 14.6755 4.70814 14.439 4.47626L13.5933 3.64708C13.1707 3.23276 12.5976 3 12 3C11.4024 3 10.8293 3.23276 10.4067 3.64707L9.56101 4.47624C9.32451 4.70813 9.02992 4.87489 8.70685 4.95977L7.52652 5.26989C7.16207 5.36564 6.94577 5.7329 7.04336 6.09025C7.09024 6.26191 7.20477 6.40828 7.36174 6.49713L8.26667 7.00939M15.7333 7.00939L14.6572 7.2921C12.9164 7.74943 11.0836 7.74943 9.34279 7.2921L8.26667 7.00939M15.7333 7.00939V8.00624C15.7333 8.11488 15.6632 8.21108 15.5597 8.24428L15.2667 8.33834M8.26667 7.00939L8.26667 8.00624C8.26667 8.11488 8.33683 8.21108 8.44027 8.24428L8.73333 8.33834M15.2667 8.33834L14.0326 8.73444C12.712 9.15828 11.288 9.15828 9.96744 8.73444L8.73333 8.33834M15.2667 8.33834C15.2667 10.0387 14.8102 11.7091 13.943 13.1817L13.8667 13.3114M13.8667 13.3114V14.1367M13.8667 13.3114C12.6438 13.6326 11.3562 13.6326 10.1333 13.3114M10.1333 13.3114L10.057 13.1817C9.18983 11.7091 8.73333 10.0387 8.73333 8.33834M10.1333 13.3114V14.1367M13.8667 14.1367L12 15.9669M13.8667 14.1367L14.5667 14.2429M12 15.9669L10.1333 14.1367M12 15.9669L13.296 17.0907C13.4318 17.2084 13.6437 17.1488 13.6981 16.9775L14.5667 14.2429M12 15.9669L10.704 17.0907C10.5682 17.2084 10.3563 17.1488 10.3019 16.9775L9.43333 14.2429M10.1333 14.1367L9.43333 14.2429M15.2667 14.3491V13.9292C15.2667 13.7911 15.3786 13.6792 15.5167 13.6792H16.8833C17.0214 13.6792 17.1333 13.7911 17.1333 13.9292V14.981M15.2667 14.3491V16.1745C15.2667 16.3126 15.3786 16.4245 15.5167 16.4245H16.2M15.2667 14.3491L14.5667 14.2429M9.43333 14.2429L8.73333 14.3491L7.8412 14.5835C7.50404 14.672 7.17974 14.8038 6.87637 14.9756L6.72681 15.0602C6.20699 15.3545 5.77377 15.7804 5.47068 16.2951L5.35659 16.4888C5.12312 16.8853 5 17.337 5 17.7971M5 17.7971H6.25C6.38807 17.7971 6.5 17.9091 6.5 18.0471V19.0295C6.5 19.1166 6.45461 19.1975 6.3802 19.2429L5 20.0849M5 17.7971V20.0849M5 20.0849V20.75C5 20.8881 5.11193 21 5.25 21H7.8M7.8 21V20.0849M7.8 21H16.2M19 17.7971H17.75C17.6119 17.7971 17.5 17.9091 17.5 18.0471V19.0295C17.5 19.1166 17.5454 19.1975 17.6198 19.2429L19 20.0849M19 17.7971V20.0849M19 17.7971C19 17.337 18.8769 16.8853 18.6434 16.4888L18.5293 16.2951C18.2262 15.7804 17.793 15.3545 17.2732 15.0602L17.1333 14.981M19 20.0849V20.75C19 20.8881 18.8881 21 18.75 21H16.2M16.2 21V20.0849M17.1333 14.981V16.1745C17.1333 16.3126 17.0214 16.4245 16.8833 16.4245H16.2M16.2 16.4245L16.2 17.3396M12 17.7971V18.2547M12 19.6273V20.0849M12.9333 5.57727V5.2357C12.9333 5.09763 12.8214 4.9857 12.6833 4.9857H11.3167C11.1786 4.9857 11.0667 5.09763 11.0667 5.2357V5.57727C11.0667 5.78442 11.1506 5.9831 11.3 6.12958C11.4494 6.27606 11.652 6.35836 11.8633 6.35836H12.1367C12.348 6.35836 12.5506 6.27606 12.7 6.12958C12.8494 5.9831 12.9333 5.78442 12.9333 5.57727Z" stroke="black" stroke-linecap="round" stroke-linejoin="round"/>
</svg>
