<svg width="24" height="24" viewBox="0 0 24 24" fill="none" xmlns="http://www.w3.org/2000/svg">
<path d="M12.0014 15.001V17.251M8.24833 8.25098V5.25098C8.24833 4.25641 8.64342 3.30259 9.34668 2.59933C10.0499 1.89606 11.0038 1.50098 11.9983 1.50098C12.9929 1.50098 13.9467 1.89606 14.65 2.59933C15.3532 3.30259 15.7483 4.25641 15.7483 5.25098V8.25098M13.8749 13.1268C13.8749 14.1624 13.0354 15.0018 11.9999 15.0018C10.9643 15.0018 10.1249 14.1624 10.1249 13.1268C10.1249 12.0913 10.9643 11.2518 11.9999 11.2518C13.0354 11.2518 13.8749 12.0913 13.8749 13.1268ZM4.50098 8.25097H19.501C19.9152 8.25097 20.251 8.58676 20.251 9.00097V19.501C20.251 19.9152 19.9152 20.251 19.501 20.251H4.50098C4.08676 20.251 3.75098 19.9152 3.75098 19.501V9.00097C3.75098 8.58676 4.08676 8.25097 4.50098 8.25097Z" stroke="black" stroke-linecap="round" stroke-linejoin="round"/>
</svg>
