<svg width="24" height="24" viewBox="0 0 24 24" fill="none" xmlns="http://www.w3.org/2000/svg">
<path d="M3 8V20.25C3 20.6642 3.33579 21 3.75 21H20.25C20.6642 21 21 20.6642 21 20.25V8M3 8L5.83721 3.35882C5.97346 3.13593 6.21588 3 6.47711 3H10.4118M3 8H9.35294M21 8L18.1628 3.35882C18.0265 3.13593 17.7841 3 17.5229 3H13.5882M21 8H14.6471M10.4118 3L9.35294 8M10.4118 3H13.5882M9.35294 8V12.25C9.35294 12.6642 9.68873 13 10.1029 13H13.8971C14.3113 13 14.6471 12.6642 14.6471 12.25V8M13.5882 3L14.6471 8" stroke="black" stroke-linecap="round" stroke-linejoin="round"/>
</svg>
