<svg width="24" height="24" viewBox="0 0 24 24" fill="none" xmlns="http://www.w3.org/2000/svg">
<path d="M15.748 10.5015V8.25146C15.748 7.83725 15.4123 7.50146 14.998 7.50146H3.74805C3.33383 7.50146 2.99805 7.83725 2.99805 8.25146V16.5015C2.99805 16.9157 3.33383 17.2515 3.74805 17.2515H6.74805M15.748 10.5015H18.3128C18.5819 10.5015 18.8305 10.6457 18.964 10.8794L21.6492 15.5785C21.714 15.6919 21.748 15.8201 21.748 15.9506V16.5015C21.748 16.9157 21.4123 17.2515 20.998 17.2515H20.248M15.748 10.5015V17.2515M20.248 17.2515C20.248 16.423 19.5765 15.7515 18.748 15.7515C17.9196 15.7515 17.248 16.423 17.248 17.2515M20.248 17.2515C20.248 18.0799 19.5765 18.7515 18.748 18.7515C17.9196 18.7515 17.248 18.0799 17.248 17.2515M17.248 17.2515H15.748M15.748 17.2515H9.74805M9.74805 17.2515C9.74805 18.0799 9.07647 18.7515 8.24805 18.7515C7.41962 18.7515 6.74805 18.0799 6.74805 17.2515M9.74805 17.2515C9.74805 16.423 9.07647 15.7515 8.24805 15.7515C7.41962 15.7515 6.74805 16.423 6.74805 17.2515" stroke="black" stroke-linecap="round" stroke-linejoin="round"/>
</svg>
