<svg width="24" height="24" viewBox="0 0 24 24" fill="none" xmlns="http://www.w3.org/2000/svg">
<path d="M12 15V8.25M12 15C10.7574 15 9.75 16.0074 9.75 17.25C9.75 18.4926 10.7574 19.5 12 19.5C13.2426 19.5 14.25 18.4926 14.25 17.25C14.25 16.0074 13.2426 15 12 15ZM9 4.5C9 3.70435 9.31607 2.94129 9.87868 2.37868C10.4413 1.81607 11.2044 1.5 12 1.5C12.7956 1.5 13.5587 1.81607 14.1213 2.37868C14.6839 2.94129 15 3.70435 15 4.5V12.5458C15 12.7912 15.1224 13.0183 15.3128 13.1731C16.0743 13.7925 16.649 14.6148 16.9681 15.5486C17.3294 16.6063 17.3438 17.7517 17.0091 18.8181C16.6744 19.8845 16.0081 20.8162 15.1071 21.4777C14.2062 22.1392 13.1177 22.4959 12 22.4959C10.8823 22.4959 9.79378 22.1392 8.89285 21.4777C7.99193 20.8162 7.32562 19.8845 6.99092 18.8181C6.65622 17.7517 6.67059 16.6063 7.03194 15.5486C7.35096 14.6148 7.92573 13.7925 8.6872 13.1731C8.87757 13.0183 9 12.7912 9 12.5458V4.5Z" stroke="black" stroke-linecap="round" stroke-linejoin="round"/>
</svg>
