<svg width="44" height="44" viewBox="0 0 44 44" fill="none" xmlns="http://www.w3.org/2000/svg">
<path d="M18.5386 28.5811V15.4658H19.8418V28.5811H18.5386ZM15.7163 29.6519C14.5985 29.6519 13.7352 29.3475 13.1265 28.7388C12.5177 28.13 12.2134 27.2668 12.2134 26.1489V17.8813C12.2134 16.7635 12.5177 15.9002 13.1265 15.2915C13.7352 14.6772 14.5985 14.3701 15.7163 14.3701H28.4912C29.5371 14.3701 30.3478 14.6772 30.9233 15.2915C31.4989 15.9002 31.7866 16.7635 31.7866 17.8813V26.1489C31.7866 27.2668 31.4989 28.13 30.9233 28.7388C30.3478 29.3475 29.5371 29.6519 28.4912 29.6519H15.7163ZM15.7246 28.3154H28.2754C28.9671 28.3154 29.5011 28.1273 29.8774 27.751C30.2593 27.3691 30.4502 26.8351 30.4502 26.1489V17.8813C30.4502 17.1951 30.2593 16.6611 29.8774 16.2793C29.5011 15.8975 28.9671 15.7065 28.2754 15.7065H15.7246C15.0329 15.7065 14.4961 15.8975 14.1143 16.2793C13.738 16.6611 13.5498 17.1951 13.5498 17.8813V26.1489C13.5498 26.8351 13.738 27.3691 14.1143 27.751C14.4961 28.1273 15.0329 28.3154 15.7246 28.3154ZM16.9448 18.7944H15.1602C15.0384 18.7944 14.9305 18.7474 14.8364 18.6533C14.7424 18.5537 14.6953 18.4458 14.6953 18.3296C14.6953 18.2023 14.7424 18.0944 14.8364 18.0059C14.9305 17.9118 15.0384 17.8647 15.1602 17.8647H16.9448C17.0666 17.8647 17.1745 17.9118 17.2686 18.0059C17.3682 18.0944 17.418 18.2023 17.418 18.3296C17.418 18.4458 17.3682 18.5537 17.2686 18.6533C17.1745 18.7474 17.0666 18.7944 16.9448 18.7944ZM16.9448 20.9443H15.1602C15.0384 20.9443 14.9305 20.8973 14.8364 20.8032C14.7424 20.7091 14.6953 20.5985 14.6953 20.4712C14.6953 20.3494 14.7424 20.2443 14.8364 20.1558C14.9305 20.0617 15.0384 20.0146 15.1602 20.0146H16.9448C17.0666 20.0146 17.1745 20.0617 17.2686 20.1558C17.3682 20.2443 17.418 20.3494 17.418 20.4712C17.418 20.5985 17.3682 20.7091 17.2686 20.8032C17.1745 20.8973 17.0666 20.9443 16.9448 20.9443ZM16.9448 23.0859H15.1602C15.0384 23.0859 14.9305 23.0417 14.8364 22.9531C14.7424 22.859 14.6953 22.7511 14.6953 22.6294C14.6953 22.5021 14.7424 22.3942 14.8364 22.3057C14.9305 22.2116 15.0384 22.1646 15.1602 22.1646H16.9448C17.0666 22.1646 17.1745 22.2116 17.2686 22.3057C17.3682 22.3942 17.418 22.5021 17.418 22.6294C17.418 22.7511 17.3682 22.859 17.2686 22.9531C17.1745 23.0417 17.0666 23.0859 16.9448 23.0859Z" fill="black"/>
</svg>
