<svg width="24" height="24" viewBox="0 0 24 24" fill="none" xmlns="http://www.w3.org/2000/svg">
<path d="M6.75 20.25H20.25M19.4998 9.75H13.8105C13.6115 9.75 13.4208 9.67098 13.2801 9.53033L9.21946 5.46967C9.07881 5.32902 8.88804 5.25 8.68913 5.25H8.24979C8.13102 5.25014 8.01399 5.27848 7.90832 5.3327C7.80265 5.38691 7.71136 5.46544 7.64198 5.56183C7.57259 5.65822 7.52709 5.76971 7.50921 5.88712C7.49134 6.00454 7.5016 6.12452 7.53916 6.23719L8.38105 8.76283C8.54293 9.24848 8.18145 9.75 7.66953 9.75H5.56045C5.36154 9.75 5.17077 9.67098 5.03012 9.53033L3.21946 7.71967C3.07881 7.57902 2.88804 7.5 2.68913 7.5H2.24979C2.13288 7.50003 2.01759 7.5274 1.91314 7.57991C1.80868 7.63242 1.71795 7.70862 1.64818 7.80243C1.57841 7.89625 1.53154 8.00507 1.51131 8.12022C1.49108 8.23537 1.49805 8.35365 1.53166 8.46563L2.85073 12.8625C3.0362 13.4804 3.4159 14.022 3.93351 14.4071C4.45111 14.7921 5.07905 15 5.72416 15H21.7498C22.164 15 22.4998 14.6642 22.4998 14.25V12.75C22.4998 11.9544 22.1837 11.1913 21.6211 10.6287C21.0585 10.0661 20.2954 9.75 19.4998 9.75Z" stroke="black" stroke-linecap="round" stroke-linejoin="round"/>
</svg>
