<svg width="20" height="20" viewBox="0 0 20 20" fill="none" xmlns="http://www.w3.org/2000/svg">
<path d="M13.125 6.875C13.125 6.875 11.7187 6.4375 13.125 4.6875C14.5312 2.9375 13.125 2.5 13.125 2.5M10 6.875C10 6.875 8.59375 6.4375 10 4.6875C11.4063 2.9375 10 2.5 10 2.5M6.875 6.875C6.875 6.875 5.46875 6.4375 6.875 4.6875C8.28125 2.9375 6.875 2.5 6.875 2.5M6.875 16.1953C5.5692 15.5968 4.46274 14.6359 3.68717 13.4268C2.9116 12.2178 2.49955 10.8114 2.5 9.375H17.5C17.5005 10.8114 17.0884 12.2178 16.3128 13.4268C15.5373 14.6359 14.4308 15.5968 13.125 16.1953V16.875C13.125 17.0408 13.0592 17.1997 12.9419 17.3169C12.8247 17.4342 12.6658 17.5 12.5 17.5H7.5C7.33424 17.5 7.17527 17.4342 7.05806 17.3169C6.94085 17.1997 6.875 17.0408 6.875 16.875V16.1953Z" stroke="#27262C" stroke-linecap="round" stroke-linejoin="round"/>
</svg>
