<svg width="20" height="20" viewBox="0 0 20 20" fill="none" xmlns="http://www.w3.org/2000/svg">
<path d="M10 10.0842V18.1217M2.55371 6.0083L9.99902 10.0833L17.4443 6.0083M6.37207 3.77319L13.7502 7.81147V11.874M17.175 14.283L10.3 18.047C10.208 18.0974 10.1049 18.1237 10 18.1237C9.89515 18.1237 9.79198 18.0974 9.7 18.047L2.825 14.283C2.72683 14.2292 2.64488 14.1502 2.58772 14.054C2.53055 13.9578 2.50025 13.848 2.5 13.7361V6.26264C2.50025 6.15074 2.53055 6.04096 2.58772 5.94476C2.64488 5.84857 2.72683 5.76948 2.825 5.71577L9.7 1.95171C9.79198 1.90138 9.89515 1.875 10 1.875C10.1049 1.875 10.208 1.90138 10.3 1.95171L17.175 5.71577C17.2732 5.76948 17.3551 5.84857 17.4123 5.94476C17.4695 6.04096 17.4997 6.15074 17.5 6.26264V13.7345C17.5 13.8467 17.4699 13.9568 17.4127 14.0533C17.3555 14.1498 17.2734 14.2291 17.175 14.283Z" stroke="#27262C" stroke-linecap="round" stroke-linejoin="round"/>
</svg>
