<svg width="20" height="20" viewBox="0 0 20 20" fill="none" xmlns="http://www.w3.org/2000/svg">
<path d="M16.6654 5H3.33203M8.18052 8.75V13.75M11.8169 8.75V13.75M15.4532 5V16.875C15.4532 17.0408 15.3894 17.1997 15.2757 17.3169C15.1621 17.4342 15.0079 17.5 14.8472 17.5H5.15021C4.98948 17.5 4.83532 17.4342 4.72166 17.3169C4.60801 17.1997 4.54415 17.0408 4.54415 16.875V5M13.029 5V3.75C13.029 3.41848 12.9013 3.10054 12.674 2.86612C12.4467 2.6317 12.1384 2.5 11.8169 2.5H8.18052C7.85904 2.5 7.55073 2.6317 7.32342 2.86612C7.0961 3.10054 6.96839 3.41848 6.96839 3.75V5" stroke="#F44335" stroke-linecap="round" stroke-linejoin="round"/>
</svg>
