<svg width="16" height="16" viewBox="0 0 16 16" fill="none" xmlns="http://www.w3.org/2000/svg">
<path d="M2.12997 3.4776C2.0649 3.40817 2.022 3.32192 2.00648 3.22931C1.99095 3.1367 2.00347 3.04172 2.04251 2.95587C2.08155 2.87003 2.14543 2.79701 2.22641 2.74567C2.3074 2.69433 2.402 2.66687 2.49876 2.66663H13.5C13.5969 2.66664 13.6916 2.69392 13.7728 2.74517C13.854 2.79642 13.918 2.86943 13.9572 2.95532C13.9964 3.04121 14.0091 3.13629 13.9936 3.22901C13.9781 3.32173 13.9352 3.40809 13.87 3.4776L9.49954 8.00041V11.5553C9.4996 11.6351 9.47931 11.7137 9.44049 11.7841C9.40167 11.8546 9.34552 11.9146 9.27702 11.9589L7.27679 13.2518C7.20156 13.3004 7.11411 13.3284 7.02377 13.3327C6.93344 13.337 6.84359 13.3175 6.7638 13.2762C6.684 13.2349 6.61726 13.1734 6.57066 13.0982C6.52407 13.023 6.49937 12.937 6.49921 12.8493V8.00041L2.12997 3.4776Z" stroke="white" stroke-linecap="round" stroke-linejoin="round"/>
</svg>
