<?xml version="1.0" encoding="utf-8"?>
<!-- Generator: Adobe Illustrator 26.5.0, SVG Export Plug-In . SVG Version: 6.00 Build 0)  -->
<svg version="1.1" id="Layer_1" xmlns="http://www.w3.org/2000/svg" xmlns:xlink="http://www.w3.org/1999/xlink" x="0px" y="0px"
	 width="50px" height="50px" viewBox="0 0 50 50" style="enable-background:new 0 0 50 50;" xml:space="preserve">
<g class="fm_fill">
<g>
	<path class="fm_fill" d="M36.4,49.9L26.2,29l-6.7,7.2l0.7,6.6l-4.4,4.7L11.7,39l-7.8-4.4L8.2,30l6.2,0.8l6.8-7.3L1.5,12.4l5.2-5.5l23.9,6.7l10-10.7
		c0.5-0.5,1.1-0.9,1.7-1.2l0.1,0l5.8-1.2l-1.3,6c-0.2,0.6-0.5,1.1-1,1.6l-10.3,11l6,25L36.4,49.9z M26.7,25.7l10.1,20.9l2.7-2.9
		l-6-25L44.5,7C44.8,6.7,45,6.4,45.1,6L45.8,3l-2.9,0.6c-0.3,0.1-0.6,0.3-0.9,0.6L31.1,15.8L7.3,9l-2.8,3l19.7,11.1l-9.1,9.7L8.9,32
		l-2,2.2l6.2,3.5l3.2,6.6l1.9-2.1l-0.7-6.6L26.7,25.7z"/>
</g>
</g>
<style type="text/css"><![CDATA[ .fm_fill {fill:#4B9ACA;} ]]></style></svg>
