<svg width="24" height="24" viewBox="0 0 24 24" fill="none" xmlns="http://www.w3.org/2000/svg">
<path d="M20 14.9091H16.9524V20M19.2381 17.8182H16.9524M4 18.5455H5.52381C6.02898 18.5455 6.51347 18.3539 6.87068 18.0129C7.22789 17.6719 7.42857 17.2095 7.42857 16.7273C7.42857 16.2451 7.22789 15.7826 6.87068 15.4416C6.51347 15.1006 6.02898 14.9091 5.52381 14.9091H4V20M4 11.2727V4.72727C4 4.53439 4.08027 4.3494 4.22316 4.21301C4.36604 4.07662 4.55984 4 4.7619 4H13.9048M13.9048 4L19.2381 9.09091M13.9048 4V9.09091H19.2381M19.2381 9.09091V11.2727M10.0952 14.9091V20H11.619C12.3263 20 13.0046 19.7318 13.5047 19.2545C14.0048 18.7771 14.2857 18.1296 14.2857 17.4545C14.2857 16.7794 14.0048 16.132 13.5047 15.6546C13.0046 15.1773 12.3263 14.9091 11.619 14.9091H10.0952Z" stroke="#27262C" stroke-linecap="round" stroke-linejoin="round"/>
</svg>
