<svg width="24" height="24" viewBox="0 0 24 24" fill="none" xmlns="http://www.w3.org/2000/svg">
<path d="M12.3214 7.95652H13.2857V8.47826L12.6429 11.0435H11.3571L10.7143 8.47826V7.95652H12.3214ZM12.3214 7.95652L12.5 7L13 6.5M6 4.56522L7.71429 3H16.2857L18 4.56522M6 4.56522V19.4348V20.2174H6.85714H17.1429H18V19.4348V4.56522M6 4.56522H18M7.28571 15.913V19.0435H16.7143V15.913M7.28571 15.913V12.7826H16.7143V15.913M7.28571 15.913H16.7143M11.1429 14.3478H12.8571M11.1429 17.4783H12.8571M8.14286 20.6087C8.14286 20.8248 7.95098 21 7.71429 21C7.47759 21 7.28571 20.8248 7.28571 20.6087C7.28571 20.3926 7.47759 20.2174 7.71429 20.2174C7.95098 20.2174 8.14286 20.3926 8.14286 20.6087ZM16.7143 20.6087C16.7143 20.8248 16.5224 21 16.2857 21C16.049 21 15.8571 20.8248 15.8571 20.6087C15.8571 20.3926 16.049 20.2174 16.2857 20.2174C16.5224 20.2174 16.7143 20.3926 16.7143 20.6087Z" stroke="black" stroke-linecap="round" stroke-linejoin="round"/>
</svg>
