<svg width="20" height="20" viewBox="0 0 20 20" fill="none" xmlns="http://www.w3.org/2000/svg">
<path d="M13.639 3.33337H15.9193C16.3335 3.33337 16.6693 3.66916 16.6693 4.08337V6.36368M6.36624 16.6667H4.08594C3.67172 16.6667 3.33594 16.3309 3.33594 15.9167V13.6364M16.6693 13.6364V15.9167C16.6693 16.3309 16.3335 16.6667 15.9193 16.6667H13.639M3.33594 6.36368V4.08337C3.33594 3.66916 3.67172 3.33337 4.08594 3.33337H6.36624M10.8511 10.8485V12.5455M10.8511 14.2425H11.7981C12.2123 14.2425 12.5481 13.9067 12.5481 13.4925V10.8485M12.5481 11.697H14.245M14.245 13.394V14.2425M6.18442 5.75762H8.72988C8.96418 5.75762 9.15412 5.94756 9.15412 6.18186V8.72731C9.15412 8.96162 8.96418 9.15156 8.72988 9.15156H6.18442C5.95012 9.15156 5.76018 8.96162 5.76018 8.72731V6.18186C5.76018 5.94756 5.95012 5.75762 6.18442 5.75762ZM6.18442 10.8485H8.72988C8.96418 10.8485 9.15412 11.0385 9.15412 11.2728V13.8182C9.15412 14.0525 8.96418 14.2425 8.72988 14.2425H6.18442C5.95012 14.2425 5.76018 14.0525 5.76018 13.8182V11.2728C5.76018 11.0385 5.95012 10.8485 6.18442 10.8485ZM11.2753 5.75762H13.8208C14.0551 5.75762 14.245 5.94756 14.245 6.18186V8.72731C14.245 8.96162 14.0551 9.15156 13.8208 9.15156H11.2753C11.041 9.15156 10.8511 8.96162 10.8511 8.72731V6.18186C10.8511 5.94756 11.041 5.75762 11.2753 5.75762Z" stroke="#263238" stroke-linecap="round" stroke-linejoin="round"/>
</svg>
