<svg width="24" height="24" viewBox="0 0 24 24" fill="none" xmlns="http://www.w3.org/2000/svg">
<path d="M10.4998 21.7499H20.2498M9.82831 7.16438C9.77617 7.26858 9.74902 7.38349 9.74902 7.50001C9.74902 7.61652 9.77617 7.73144 9.82831 7.83563L12.8077 13.8356C12.87 13.9602 12.9659 14.065 13.0844 14.1382C13.203 14.2114 13.3396 14.2501 13.4789 14.25H19.4996C19.6985 14.25 19.8892 14.329 20.0299 14.4697C20.1705 14.6103 20.2496 14.8011 20.2496 15V18C20.2496 18.1989 20.1705 18.3897 20.0299 18.5303C19.8892 18.671 19.6985 18.75 19.4996 18.75H10.6974C10.5582 18.7499 10.4218 18.7111 10.3034 18.638C10.185 18.5648 10.0893 18.4601 10.0271 18.3356L4.57831 7.46063C4.52617 7.35644 4.49902 7.24152 4.49902 7.12501C4.49902 7.00849 4.52617 6.89358 4.57831 6.78938L6.65581 2.66438C6.7449 2.48667 6.90089 2.3516 7.08951 2.28884C7.27813 2.22609 7.48395 2.24078 7.66175 2.3297L10.8389 3.67126C11.0166 3.76034 11.1517 3.91634 11.2145 4.10496C11.2772 4.29358 11.2625 4.4994 11.1736 4.6772L9.82831 7.16438Z" stroke="black" stroke-linecap="round" stroke-linejoin="round"/>
</svg>
