<svg width="20" height="20" viewBox="0 0 20 20" fill="none" xmlns="http://www.w3.org/2000/svg">
<path d="M10.2469 13.0567C12.0714 13.0567 13.3333 11.7246 13.3333 10C13.3333 8.27537 12.0714 6.81132 10.2469 6.81132C8.69684 6.88278 7.2178 8.28087 7.2178 10.0055C7.2178 11.7301 8.69684 13.1282 10.2469 13.0567Z" stroke="#27262C" stroke-linecap="round" stroke-linejoin="round"/>
<path d="M10.4162 16.0319C10.3056 16.0319 10.1941 16.0319 10.0859 16.0319L7.71333 17.5C6.6829 17.1724 5.72714 16.6638 4.89625 16.0011L4.88634 13.1907C4.8277 13.1032 4.77237 13.015 4.72116 12.9244L2.08908 11.5075C1.88176 10.5163 1.88176 9.49626 2.08908 8.50503L4.71868 7.092C4.77237 7.00222 4.8277 6.91323 4.88386 6.82579L4.89707 4.01535C5.72722 3.35071 6.68273 2.84031 7.71333 2.51098L10.0818 3.83615C10.1924 3.83615 10.3039 3.83615 10.4121 3.83615L12.8222 2.5C13.8526 2.82764 14.8084 3.33617 15.6393 3.9989L15.6492 6.80934C15.7078 6.89678 15.7631 6.985 15.8143 7.07555L18.4448 8.4917C18.6521 9.48294 18.6521 10.503 18.4448 11.4942L15.8152 12.9072C15.7615 12.997 15.7062 13.086 15.65 13.1734L15.6368 15.9839C14.8072 16.6486 13.8523 17.1593 12.8222 17.489L10.4162 16.0319Z" stroke="#27262C" stroke-linecap="round" stroke-linejoin="round"/>
</svg>
