<svg width="48" height="48" viewBox="0 0 48 48" fill="none" xmlns="http://www.w3.org/2000/svg">
<g opacity="0.8" clip-path="url(#clip0_3290_91370)">
<mask id="mask0_3290_91370" style="mask-type:luminance" maskUnits="userSpaceOnUse" x="0" y="0" width="48" height="48">
<path d="M48 0H0V48H48V0Z" fill="white"/>
</mask>
<g mask="url(#mask0_3290_91370)">
<path d="M44 19.5C43.18 19.5 42.5 18.82 42.5 18V14C42.5 8.84 39.16 5.5 34 5.5H14C8.84 5.5 5.5 8.84 5.5 14V18C5.5 18.82 4.82 19.5 4 19.5C3.18 19.5 2.5 18.82 2.5 18V14C2.5 7.12 7.12 2.5 14 2.5H34C40.88 2.5 45.5 7.12 45.5 14V18C45.5 18.82 44.82 19.5 44 19.5Z" fill="white"/>
<path d="M34 45.5H14C7.12 45.5 2.5 40.88 2.5 34V30C2.5 29.18 3.18 28.5 4 28.5C4.82 28.5 5.5 29.18 5.5 30V34C5.5 39.16 8.84 42.5 14 42.5H34C39.16 42.5 42.5 39.16 42.5 34V30C42.5 29.18 43.18 28.5 44 28.5C44.82 28.5 45.5 29.18 45.5 30V34C45.5 40.88 40.88 45.5 34 45.5Z" fill="white"/>
<path d="M23.9973 26.158C23.7373 26.158 23.4773 26.0978 23.2373 25.9578L12.6373 19.8379C11.9173 19.4179 11.6773 18.4979 12.0973 17.7779C12.5173 17.0579 13.4373 16.8179 14.1373 17.2379L23.9773 22.9378L33.7573 17.2779C34.4773 16.8579 35.3973 17.1179 35.7973 17.8179C36.2173 18.5379 35.9573 19.4579 35.2573 19.8779L24.7373 25.9578C24.5173 26.0778 24.2573 26.158 23.9973 26.158Z" fill="white"/>
<path d="M24 37.0402C23.18 37.0402 22.5 36.3602 22.5 35.5402V24.6602C22.5 23.8402 23.18 23.1602 24 23.1602C24.82 23.1602 25.5 23.8402 25.5 24.6602V35.5402C25.5 36.3602 24.82 37.0402 24 37.0402Z" fill="white"/>
<path d="M23.9965 37.5016C22.8365 37.5016 21.6965 37.2416 20.7765 36.7416L14.3766 33.1816C12.4566 32.1216 10.9766 29.5816 10.9766 27.3816V20.6016C10.9766 18.4215 12.4766 15.8816 14.3766 14.8016L20.7765 11.2416C22.6165 10.2216 25.3765 10.2216 27.2165 11.2416L33.6165 14.8016C35.5365 15.8616 37.0165 18.4015 37.0165 20.6016V27.3816C37.0165 29.5616 35.5165 32.1016 33.6165 33.1816L27.2165 36.7416C26.2965 37.2416 25.1565 37.5016 23.9965 37.5016ZM22.2365 13.8816L15.8366 17.4415C14.8566 17.9815 13.9766 19.5015 13.9766 20.6016V27.3816C13.9766 28.5016 14.8566 30.0016 15.8366 30.5416L22.2365 34.1016C23.1565 34.6016 24.8365 34.6016 25.7565 34.1016L32.1565 30.5416C33.1365 30.0016 34.0165 28.4816 34.0165 27.3816V20.6016C34.0165 19.4815 33.1365 17.9815 32.1565 17.4415L25.7565 13.8816C24.8365 13.3816 23.1565 13.3816 22.2365 13.8816Z" fill="white"/>
</g>
</g>
<defs>
<clipPath id="clip0_3290_91370">
<rect width="48" height="48" fill="white"/>
</clipPath>
</defs>
</svg>
