<?xml version="1.0" encoding="utf-8"?>
<svg version="1.2" xmlns="http://www.w3.org/2000/svg" xmlns:xlink="http://www.w3.org/1999/xlink"
	 x="0px" y="0px" width="24px" height="24px" viewBox="0 0 24 24">
<g class="fm_fill">
<polygon points="20.234,12.83 11.073,12.83 11.073,3.375 12.073,3.375 12.073,11.83 20.234,11.83 		"/>
<path d="M12.061,23.939c-6.617,0-12-5.383-12-12s5.383-12,12-12c6.617,0,12,5.383,12,12
			S18.678,23.939,12.061,23.939z M12.061,0.939c-6.065,0-11,4.935-11,11c0,6.064,4.935,11,11,11s11-4.936,11-11
			C23.061,5.874,18.126,0.939,12.061,0.939z"/>
</g>
<style type="text/css"><![CDATA[ .fm_fill {fill:#0090CD;} ]]></style></svg>
