<svg width="20" height="20" viewBox="0 0 20 20" fill="none" xmlns="http://www.w3.org/2000/svg">
<path d="M3.75 6.25V5.625C3.75 5.27982 4.02982 5 4.375 5H13.75C14.0952 5 14.375 5.27982 14.375 5.625V7.5M3.75 6.25H5.625M3.75 6.25H1.875M14.375 7.5H16.5123C16.7366 7.5 16.9437 7.62018 17.055 7.81491L19.2927 11.7309C19.3466 11.8253 19.375 11.9322 19.375 12.041V12.5C19.375 12.8452 19.0952 13.125 18.75 13.125H18.125M14.375 7.5V13.125M18.125 13.125C18.125 13.8154 17.5654 14.375 16.875 14.375C16.1846 14.375 15.625 13.8154 15.625 13.125M18.125 13.125C18.125 12.4346 17.5654 11.875 16.875 11.875C16.1846 11.875 15.625 12.4346 15.625 13.125M15.625 13.125H14.375M14.375 13.125H9.375M9.375 13.125C9.375 13.8154 8.81536 14.375 8.125 14.375C7.43464 14.375 6.875 13.8154 6.875 13.125M9.375 13.125C9.375 12.4346 8.81536 11.875 8.125 11.875C7.43464 11.875 6.875 12.4346 6.875 13.125M6.875 13.125H4.375C4.02982 13.125 3.75 12.8452 3.75 12.5V11.25M3.75 11.25H5M3.75 11.25H0.625M3.75 9.375H8.125M3.75 9.375H2.5M3.75 9.375V7.5M0.625 8.125H2.5" stroke="black" stroke-linecap="round" stroke-linejoin="round"/>
</svg>
