<svg width="20" height="20" viewBox="0 0 20 20" fill="none" xmlns="http://www.w3.org/2000/svg">
<path d="M6.8761 6.875V4.375C6.8761 3.5462 7.20534 2.75134 7.79139 2.16529C8.37744 1.57924 9.17229 1.25 10.0011 1.25C11.5128 1.25 12.8363 2.32344 13.1261 3.75M10.0004 12.5V14.375M3.75 6.87499H16.25C16.5952 6.87499 16.875 7.15482 16.875 7.49999V16.25C16.875 16.5952 16.5952 16.875 16.25 16.875H3.75C3.40482 16.875 3.125 16.5952 3.125 16.25V7.49999C3.125 7.15482 3.40482 6.87499 3.75 6.87499ZM11.5616 10.9382C11.5616 11.8012 10.862 12.5007 9.99908 12.5007C9.13613 12.5007 8.43658 11.8012 8.43658 10.9382C8.43658 10.0753 9.13613 9.37573 9.99908 9.37573C10.862 9.37573 11.5616 10.0753 11.5616 10.9382Z" stroke="#263238" stroke-linecap="round" stroke-linejoin="round"/>
</svg>
