<svg width="20" height="20" viewBox="0 0 20 20" fill="none" xmlns="http://www.w3.org/2000/svg">
<path d="M11.2489 11.2505V13.7505M11.2489 16.2505H12.9989C13.4131 16.2505 13.7489 15.9148 13.7489 15.5005V11.2505M13.7496 12.5009H16.2496M16.2504 15V16.25M4.375 3.75H8.125C8.47018 3.75 8.75 4.02982 8.75 4.375V8.125C8.75 8.47018 8.47018 8.75 8.125 8.75H4.375C4.02982 8.75 3.75 8.47018 3.75 8.125V4.375C3.75 4.02982 4.02982 3.75 4.375 3.75ZM4.375 11.2505H8.125C8.47018 11.2505 8.75 11.5304 8.75 11.8755V15.6255C8.75 15.9707 8.47018 16.2505 8.125 16.2505H4.375C4.02982 16.2505 3.75 15.9707 3.75 15.6255V11.8755C3.75 11.5304 4.02982 11.2505 4.375 11.2505ZM11.8739 3.75H15.6239C15.9691 3.75 16.2489 4.02982 16.2489 4.375V8.125C16.2489 8.47018 15.9691 8.75 15.6239 8.75H11.8739C11.5287 8.75 11.2489 8.47018 11.2489 8.125V4.375C11.2489 4.02982 11.5287 3.75 11.8739 3.75Z" stroke="#263238" stroke-linecap="round" stroke-linejoin="round"/>
</svg>
