<?xml version="1.0" encoding="UTF-8" standalone="no"?>
<svg
   enable-background="new 0 0 2362 2500"
   viewBox="0 0 250.31364 264.93823"
   version="1.1"
   id="svg6"
   sodipodi:docname="Emirates banner logo.svg"
   width="250.31364"
   height="264.93823"
   inkscape:version="1.4 (86a8ad7, 2024-10-11)"
   xmlns:inkscape="http://www.inkscape.org/namespaces/inkscape"
   xmlns:sodipodi="http://sodipodi.sourceforge.net/DTD/sodipodi-0.dtd"
   xmlns="http://www.w3.org/2000/svg"
   xmlns:svg="http://www.w3.org/2000/svg">
  <defs
     id="defs6" />
  <sodipodi:namedview
     id="namedview6"
     pagecolor="#ffffff"
     bordercolor="#000000"
     borderopacity="0.25"
     inkscape:showpageshadow="2"
     inkscape:pageopacity="0.0"
     inkscape:pagecheckerboard="0"
     inkscape:deskcolor="#d1d1d1"
     inkscape:zoom="0.44293169"
     inkscape:cx="526.04048"
     inkscape:cy="728.10324"
     inkscape:window-width="1920"
     inkscape:window-height="1001"
     inkscape:window-x="-9"
     inkscape:window-y="-9"
     inkscape:window-maximized="1"
     inkscape:current-layer="svg6" />
  <path
     d="M 0,0 H 250.31364 V 264.93824 H 0 Z"
     fill="#d71a21"
     id="path1"
     style="stroke-width:0.105975" />
  <g
     fill="#ffffff"
     id="g6"
     transform="scale(0.10597529)">
    <path
       d="m 1285.1,619.9 c -14.9,19.2 -23,42.9 -23.1,67.2 v 211 c -1.1,16 -7.2,30.8 -17.1,43.5 -5.5,5.5 -38,34.7 -40.8,38 l 18.2,0.6 c 6.1,-5.5 68.8,-61.1 74.9,-68.8 18.2,-19.8 28.6,-45.7 28.6,-72.7 V 635.9 c -0.5,-20.7 7.2,-40.7 21.5,-55.6 7.7,-8.3 31.9,-28.6 36.3,-33.6 l -19.3,-0.6 c -3.7,5 -72.6,67.2 -79.2,73.8 z m -154.8,767.3 76.6,66.7 h 51.2 c 49,0 96.4,-19.3 131.1,-54 31.4,-31.4 43,-73.8 43,-113.5 v -109.6 c -0.6,-24.8 -11,-48.5 -29.7,-65 -3.3,-3.3 -25.9,-24.8 -25.9,-24.8 v 84.3 c 0,0 24.8,25.3 29.2,30.3 22.6,24.2 22.6,68.3 -49.6,138.3 -12.7,12.1 -48.5,46.3 -98,46.3 z"
       id="path2" />
    <path
       d="m 1343.5,937.2 c -8.3,8.8 -16.5,30.8 -16.5,50.7 v 41.3 h 41.9 c 16.5,0 38,-14.9 42.4,-22.6 v -41.3 c 6.2,9.1 13.8,17.1 22.6,23.7 4.4,-5.5 43,-51.8 74.9,-52.3 53.4,-0.6 41.3,67.2 19.8,88.7 -7.2,7.2 -38.6,35.8 -48.5,45.2 -25.3,24.2 -68.9,12.7 -68.9,-49.6 0,0 -46.3,44.1 -53.4,50.1 -7.2,6.1 -30.8,31.4 -30.8,31.4 V 1212 c 0,52.3 -17.1,70 -31.4,85.9 -5.5,6.1 -64.4,60 -72.7,66.1 l -19.3,0.6 c 0,0 34.7,-31.4 41.3,-38.6 7.7,-8.3 17.1,-24.8 17.1,-52.3 0,-7.2 -1.1,-171.9 -1.1,-171.9 H 992.1 c -93.6,0 -113.5,-103.5 -114,-131.6 V 866.1 c 0,-17.1 -11,-45.7 -28.1,-54.5 h 26.4 c 3.3,1.1 19.8,7.7 19.8,71.6 0,0 -1.1,73.8 -1.1,78.2 0,32.5 25.9,69.4 62.8,69.4 l 304,-0.6 c 0,-8.3 8.3,-39.1 23.1,-55.6 8.3,-9.4 73.8,-68.8 81,-74.9 h 19.3 c -2.8,2.8 -34.7,30.8 -41.3,38.6 z m 99.7,62.2 c 7.9,10.7 16.5,20.9 25.9,30.3 33,26.4 48.5,-2.2 26.4,-31.9 -8.8,-12.2 -42.4,-8.9 -52.3,1.6 z"
       id="path3" />
    <path
       d="m 1117.1,1195.5 c 0,14.9 -46.8,54 -49.6,56.2 -3.3,-16 -15.4,-33.1 -50.1,-68.3 l 51.2,-51.2 c 34.8,34.7 48.5,42.4 48.5,63.3 z m 89.3,-588.8 c 10.5,10.5 32.5,38 19.3,51.8 -11.6,11.6 -29.7,30.3 -29.7,30.3 -1.1,-6.6 -18.2,-23.1 -18.2,-23.1 v 55.6 c -0.6,22.6 -8.8,28.6 -8.8,28.6 0,0 41.3,40.7 41.3,93.6 v 54 c 0.5,10.2 -3.3,20.2 -10.5,27.5 -3.9,4.4 -41.9,43 -47.9,47.9 -8.8,7.7 -19.8,12.1 -31.4,11.6 H 977.8 c -22.6,0 -45.7,-17.6 -45.7,-35.2 0,-4.4 0.6,-52.9 0.6,-52.9 7.2,8.3 14.9,18.2 32.5,18.2 14.3,0 28.6,-11 32.5,-15.4 3.9,-4.4 108,-112.4 108,-112.4 0,0 -48.5,-45.2 -80.4,-66.6 -15.4,-10.5 -36.4,2.8 -39.7,16.5 -9.9,43 0,108 0,108 l -39.1,-39.1 c -16,-16 -15.4,-51.8 3.8,-70.5 2.8,-3.3 31.9,-35.3 68.3,-35.3 h 56.7 c 38,0 79.9,38 79.9,38 3.3,-3.9 5.5,-8.3 6.1,-13.2 0,-19.8 -0.6,-72.1 -0.6,-72.1 -28.6,-28.6 -32.5,-58.4 -18.7,-72.2 25.9,-25.9 35.3,-34.7 35.3,-34.7 0,0 -1.2,31.3 29.1,61.1 z m -179.1,286.4 c -14.3,14.9 -16.5,18.2 -29.7,26.4 h 160.8 c 43.5,0 34.7,-27 27,-40.8 -16,-28.1 -66.6,-79.9 -66.6,-79.9 0,0 -88.7,91.6 -91.5,94.3 z"
       id="path4" />
    <path
       d="m 843.9,1039.6 h -26.4 c 0,0 28.1,15.4 28.1,55.6 v 128.3 c 0,83.2 68.8,160.3 152.6,160.3 h 70 c 41.9,0 56.7,-9.9 82.1,-32.5 9.4,-8.3 21.5,-22 25.9,-27 14.3,-16.5 30.3,-29.7 30.3,-72.7 v -41.9 c 0,-36.4 -20.9,-51.2 -31.4,-61.7 -6.6,-6.6 -24.2,-23.7 -24.2,-23.7 v 85.9 c 0,0 17.6,18.7 25.3,24.8 36.3,28.6 7.7,78.2 -26.4,78.2 H 995.9 c -56.2,1.1 -132.7,-49 -132.7,-133.9 v -69.4 c 0.5,-70.3 -19.3,-70.3 -19.3,-70.3 z"
       id="path5" />
    <path
       d="m 1012.5,1196.1 c 0,14.9 -46.8,54 -49.6,56.2 -3.3,-16 -15.4,-33.1 -50.1,-68.3 l 51.2,-51.2 c 34.2,34.1 48.5,41.8 48.5,63.3 z m -537.1,570 h -82.6 c -25.9,0 -23.7,-21.5 -26.4,-39.7 v -117.9 c 0,0 18.2,-0.6 38.6,-0.6 22.6,0 51.2,-3.3 78.8,12.1 -14.3,-30.3 -45.3,-49.1 -78.8,-47.9 h -38 v -38 c 0,0 0,-33.1 -8.3,-42.4 h 54.5 c 46.8,0 83.2,-0.6 121.2,24.2 0,0 -7.2,-62.2 -98,-62.2 H 259 c 0,0 30.8,26.4 29.7,79.9 l 1.1,214.8 c 0,54 21.5,55.6 21.5,55.6 h 174.6 c 39.7,0 53.4,-28.1 53.4,-43.5 l 0.6,-20.4 c 0,0.1 -12.7,26 -64.5,26 z M 940.3,1748 v -150.4 c 0,-58.4 -47.4,-73.8 -83.2,-73.8 -46.8,0 -61.1,39.1 -67.2,52.9 -10.5,-36.3 -47.4,-52.9 -77.1,-52.9 -56.7,0 -71.1,54 -71.1,54 0,0 -1.1,-52.3 -46.8,-52.3 h -44.6 c 0,0 25.9,10.5 25.9,55.6 V 1748 c 0,55.1 22,56.2 22,56.2 H 672 C 654.4,1791 643.9,1770 643.9,1747.5 v -148.2 c 1.1,-6.6 12.1,-28.6 43.5,-28.6 18.2,0 38,18.7 37.5,39.7 V 1748 c 0,55.6 22,56.2 22,56.2 h 73.8 c -17.6,-13.8 -28.1,-34.2 -28.1,-56.7 v -148.2 c 7.2,-21.7 30.6,-33.5 52.3,-26.4 16.5,5.5 28.1,20.4 28.6,38 V 1748 c 0.6,56.2 22,55.6 22,55.6 h 73.8 c -17.7,-13 -28.5,-33.6 -29,-55.6 z m 128.9,0 c 0,22.1 10.4,42.9 28.1,56.2 h -73.8 c 0,0 -22.6,0.6 -22.6,-55.6 v -168 c 0,-44.1 -25.3,-55.6 -25.3,-55.6 h 44.6 c 16,0 48.5,0 48.5,62.2 v 159.7 z m 226.9,-201.6 c 0,0 -7.2,-19.8 -37.5,-19.8 -46.3,0 -57.3,55.1 -57.3,55.1 -3.9,-43.5 -15.4,-56.2 -47.9,-56.2 h -44.6 c 0,0 25.9,10.5 25.9,55.6 V 1748 c 0,55.1 22,56.2 22,56.2 h 73.8 c -17.7,-13.3 -28.1,-34.1 -28.1,-56.2 v -137.1 c 1.7,-11.6 8.3,-22 18.2,-28.1 24.8,-16.5 57.3,-11.6 76.6,11 z m 343.2,9.9 c 15.4,0 30.3,3.8 43.5,11 v -41.9 h -61.7 v -63.9 c -13.2,20.9 -30.3,39.7 -49.6,55.6 -20.9,17.1 -65,38.6 -65,38.6 l 46.8,0.6 v 193.9 c 0,54 22.6,54 22.6,54 h 73.3 c -17.6,-12.7 -28.1,-33 -28.6,-54.5 v -193.3 z m 223.6,84.3 c -41.3,43 -73.8,36.3 -99.7,68.3 0,0 4.4,43 36.9,57.8 11,5 56.7,21.5 85.9,-29.2 v 45.2 c 0,0 -18.7,22 -78.8,22 -72.2,0 -121.7,-56.7 -121.7,-133.8 0,-76 40.2,-146 116.8,-146.5 74.4,-1.2 115.1,59.4 60.6,116.2 z m -45.2,-17.7 c 12.1,-22.6 22,-79.9 -19.8,-76.6 -48.5,3.9 -39.1,132.2 -39.1,132.2 16,-17.6 40.2,-21.4 58.9,-55.6 z m -782.6,-120 c 18.7,-0.6 33,-16 33,-34.2 -0.6,-18.7 -16,-33.1 -34.2,-33.1 -18.2,0.6 -33,15.4 -33,33.6 0,18.8 15.4,33.6 34.2,33.7 z m 337.6,269.3 c -16.5,0 -28.6,-17.6 -28.6,-35.3 0,-69.4 56.7,-79.3 72.2,-97.5 v 117.3 c -7.2,5.6 -13.9,15.5 -43.6,15.5 z m 43.5,-159.7 c -17.1,29.8 -150.4,36.4 -130,139.4 8.3,40.8 35.3,52.9 69.4,52.9 33.1,0 53.4,-17.1 61.7,-33.6 5,30.8 20.9,33 20.9,33 h 73.8 c -17.6,-13.2 -28.6,-33.6 -28.6,-55.6 v -157 c 0,-37.5 -41.3,-66.6 -85.4,-66.6 -24.5,-0.6 -48.6,6.6 -68.8,20.4 v 48.5 c 0,0 15.4,-38.6 53.4,-38.6 37.5,0 40.2,18.7 40.2,28.1 0.6,9.8 -1.1,20.3 -6.6,29.1 z m 609.8,115.6 c 0.6,19.8 -17.1,45.7 -54.5,45.7 -38.6,0 -54,-39.1 -54,-39.1 v 49.6 c 20.9,13.2 45.2,19.8 70,19.8 50.1,0 101.3,-38 100.2,-91.4 -0.5,-17.5 -6.5,-34.5 -17.1,-48.5 -17.1,-22.6 -47.9,-38.6 -72.2,-53.4 -13.8,-8.3 -20.9,-23.7 -20.9,-28.6 -0.6,-9.4 4.4,-28.1 41.3,-28.1 36.4,0 52.3,38.6 52.3,38.6 v -46.8 c -20.4,-14.3 -45.2,-22 -70.5,-22 -44.1,0 -84.3,29.2 -83.2,66.6 0.6,33.1 14.3,54 41.3,74.4 12.1,8.7 24.8,16.6 38,23.7 21,11.4 28.7,25.8 29.3,39.5 z"
       id="path6" />
  </g>
</svg>
