<svg width="16" height="15" viewBox="0 0 16 15" fill="none" xmlns="http://www.w3.org/2000/svg">
<path d="M9.50854 10.3957L11.5156 8.391C11.6328 8.27388 11.7917 8.20809 11.9574 8.20809C12.1231 8.20809 12.282 8.27388 12.3992 8.391L15.5 11.4941M0.5 10.7622L4.74531 6.51615C4.80336 6.45804 4.87229 6.41194 4.94816 6.38049C5.02404 6.34903 5.10537 6.33285 5.1875 6.33285C5.26963 6.33285 5.35096 6.34903 5.42684 6.38049C5.50271 6.41194 5.57164 6.45804 5.62969 6.51615L12.9461 13.8333M1.125 0.5H14.875C15.2202 0.5 15.5 0.779822 15.5 1.125V13.2083C15.5 13.5535 15.2202 13.8333 14.875 13.8333H1.125C0.779822 13.8333 0.5 13.5535 0.5 13.2083V1.125C0.5 0.779822 0.779822 0.5 1.125 0.5ZM11.125 5.39583C11.125 5.9136 10.7053 6.33333 10.1875 6.33333C9.66973 6.33333 9.25 5.9136 9.25 5.39583C9.25 4.87807 9.66973 4.45833 10.1875 4.45833C10.7053 4.45833 11.125 4.87807 11.125 5.39583Z" stroke="#263238" stroke-linecap="round" stroke-linejoin="round"/>
</svg>
