<svg width="15" height="17" viewBox="0 0 15 17" fill="none" xmlns="http://www.w3.org/2000/svg">
<path d="M7.37536 11.75V13.625M4.2478 6.125V3.625C4.2478 2.7962 4.57704 2.00134 5.16309 1.41529C5.74914 0.82924 6.544 0.5 7.3728 0.5C8.2016 0.5 8.99645 0.82924 9.58251 1.41529C10.1686 2.00134 10.4978 2.7962 10.4978 3.625V6.125M8.93658 10.1882C8.93658 11.0512 8.23702 11.7507 7.37408 11.7507C6.51113 11.7507 5.81158 11.0512 5.81158 10.1882C5.81158 9.32528 6.51113 8.62573 7.37408 8.62573C8.23702 8.62573 8.93658 9.32528 8.93658 10.1882ZM1.125 6.12499H13.625C13.9702 6.12499 14.25 6.40482 14.25 6.74999V15.5C14.25 15.8452 13.9702 16.125 13.625 16.125H1.125C0.779822 16.125 0.5 15.8452 0.5 15.5V6.74999C0.5 6.40482 0.779822 6.12499 1.125 6.12499Z" stroke="#263238" stroke-linecap="round" stroke-linejoin="round"/>
</svg>
