<svg version="1.1" id="svg2" inkscape:output_extension="org.inkscape.output.svg.inkscape" inkscape:version="0.48.1 " sodipodi:version="0.32" xmlns:cc="http://creativecommons.org/ns#" xmlns:dc="http://purl.org/dc/elements/1.1/" xmlns:inkscape="http://www.inkscape.org/namespaces/inkscape" xmlns:rdf="http://www.w3.org/1999/02/22-rdf-syntax-ns#" xmlns:sodipodi="http://sodipodi.sourceforge.net/DTD/sodipodi-0.dtd" xmlns:svg="http://www.w3.org/2000/svg" xmlns="http://www.w3.org/2000/svg" xmlns:xlink="http://www.w3.org/1999/xlink" x="0px" y="0px" viewBox="0 0 161.6 158.5" style="enable-background:new 0 0 161.6 158.5;" xml:space="preserve">
 <style type="text/css">
  .st0{fill:#5C0632;}
 </style>
 <defs>
  <inkscape:perspective id="perspective9" inkscape:persp3d-origin="372.04724 : 350.78739 : 1" inkscape:vp_x="0 : 526.18109 : 1" inkscape:vp_y="0 : 1000 : 0" inkscape:vp_z="744.09448 : 526.18109 : 1" sodipodi:type="inkscape:persp3d">
  </inkscape:perspective>
 </defs>
 <sodipodi:namedview bordercolor="#666666" borderopacity="1.0" fit-margin-bottom="0" fit-margin-left="0" fit-margin-right="0" fit-margin-top="0" gridtolerance="10.0" guidetolerance="10.0" id="base" inkscape:current-layer="g11" inkscape:cx="148.87599" inkscape:cy="48.980558" inkscape:pageopacity="0.0" inkscape:pageshadow="2" inkscape:window-height="750" inkscape:window-maximized="0" inkscape:window-width="1280" inkscape:window-x="-8" inkscape:window-y="-8" inkscape:zoom="2.483428" objecttolerance="10.0" pagecolor="#ffffff" showgrid="false">
 </sodipodi:namedview>
 <g id="g11" transform="matrix(1.25,0,0,-1.25,-233.49635,650.19761)" inkscape:groupmode="layer" inkscape:label="bookingguide">
  <g id="g2901" transform="matrix(1.6346852,0,0,1.6346852,-480.32465,383.92554)">
   <g id="g207" transform="translate(542.9166,62.2206)">
    <path id="path209" inkscape:connector-curvature="0" class="st0" d="M-76.6-23.7c0-1.1,0-2.2,0-3.3c-10.7-0.4-20.9-1.1-20.9-1.8
				c0-0.7,9.9-1.4,20.5-1.8c-0.2-1.2-0.4-2.4-0.7-3.6c-10.4-0.4-20.1-1.1-20.1-1.8c0-0.7,9-1.3,19.1-1.7c-0.5-1.3-1-2.5-1.6-3.7
				c-8.6-0.4-15.7-1-15.7-1.6c0-0.6,6.2-1.1,14-1.5c-0.4-0.7-0.9-1.4-1.4-2.1c-0.5-0.7-1.1-1.4-1.7-2.1c-4.9-0.4-8.3-0.8-8.3-1.2
				c0-0.4,2.4-0.8,6.1-1.1c-2-2-4.4-3.9-7.2-5.5c0,0-3.3,2.9-6.1,6.2c-2.4,3-7.6,10.8-8.8,12.6c-1.2,1.8-2,2.3-3.5,1.8
				c-1.9-0.7-4.1-1-4.8-1s-1.1,0.3,0.1,0.7c1.1,0.5,5.7,2.6,7.9,7c2.5,5,0.3,11.8,0.3,11.8c-0.8-3.7-2.7-5-2.7-5
				c0.6,3.4-0.1,6.5-1.7,8.7l-0.9-4.3c0,0-0.6,0-2-1.2c-1.4-1.2-1.8-3-1.8-3c1.1-0.5,2.5,0.7,2.5,0.7c-1.8-6.6-4.3-11.9-6.1-14.7
				c-1.8-2.8-3.3-3.9-5.2-4.6c-1.5-0.6-2.1,0.1-2.1,0.1c-1.4,1.2-2.4,2.2-3.4,3.5c0,0-0.1,0.1,0.2,0.1c0.8,0,2.1,1.3,2.4,1.8
				c0.3,0.6,0.3,1.1,0.1,1.1c-0.2,0-0.5-0.5-1.9-1.4c-1.4-0.9-2.1-0.3-2.6,0.2c-0.4,0.4,0,0.9,0.2,1.2c0.2,0.3,7.9,14.6,28.1,29.5
				c26.5,19.6,43.5,25,44.5,25.3c0.6,0.3,1.7,0.6,1.9,0.3c0.3-0.3,0.4-0.5,0.4-0.8c0-0.3-0.2-0.5-1.4-1c-10.2-4.5-22.1-12-28.8-16.3
				c-8.3-4-16.2-9.8-16.5-10c-0.6-0.4-0.2-1,0.2-0.7c14,9.3,30.5,15.7,48.7,20.9c0.9,0.2,1.3,0.2,1.5,0.1c0.2-0.2,0.2-0.5,0.3-0.7
				c0-0.3-0.3-0.5-1-0.8c-19.5-7.3-33.9-14-43.2-20.2c0,0-1-0.6-1-1.2c0-0.3,0.5-0.3,0.5-0.3c4.6-0.1,10.8-0.4,13.8-0.5
				c0,0-0.4-1.5-3.2-2.7c-2.2-0.9-4.2-0.8-6.2-0.8c-0.4,0-0.8-0.4-0.5-0.9C-96.3-15.3-92.1-22.2-76.6-23.7">
    </path>
   </g>
  </g>
 </g>
</svg>