<svg version="1.1" id="svg8" xmlns:cc="http://creativecommons.org/ns#" xmlns:dc="http://purl.org/dc/elements/1.1/" xmlns:inkscape="http://www.inkscape.org/namespaces/inkscape" xmlns:rdf="http://www.w3.org/1999/02/22-rdf-syntax-ns#" xmlns:sodipodi="http://sodipodi.sourceforge.net/DTD/sodipodi-0.dtd" xmlns:svg="http://www.w3.org/2000/svg" xmlns="http://www.w3.org/2000/svg" xmlns:xlink="http://www.w3.org/1999/xlink" x="0px" y="0px" viewBox="0 0 297.5 56" style="enable-background:new 0 0 297.5 56;" xml:space="preserve">
 <style type="text/css">
  .st0{fill:#72993F;}
	.st1{fill:#007C96;}
	.st2{fill:url(#path57_1_);}
	.st3{fill:url(#path74_1_);}
	.st4{fill:url(#path87_1_);}
	.st5{fill:url(#path104_1_);}
	.st6{fill:#B5CA30;}
 </style>
 <sodipodi:namedview bordercolor="#666666" borderopacity="1.0" id="base" inkscape:current-layer="layer1" inkscape:cx="124.15811" inkscape:cy="51.448524" inkscape:document-units="mm" inkscape:pageopacity="0.0" inkscape:pageshadow="2" inkscape:window-height="705" inkscape:window-maximized="1" inkscape:window-width="1366" inkscape:window-x="-8" inkscape:window-y="-8" inkscape:zoom="2.8" pagecolor="#ffffff" showgrid="false">
 </sodipodi:namedview>
 <g id="layer1" transform="translate(122.18642,-276.04809)" inkscape:groupmode="layer" inkscape:label="Layer 1">
  <g id="g110" transform="matrix(0.23365761,0,0,0.23365761,-122.61998,275.18356)">
   <g id="g40">
    <g id="g28">
     <path id="path12" inkscape:connector-curvature="0" class="st0" d="M1195.2,211.7c-5.6,1.1-19.7,1.1-24.2,0
					c-1.1-1.1-1.1-2.8-1.1-4.5c0-5.6,0-11.2,0-17.4c0-18,0-36.5,0-54.5c0-7.3,1.1-14.1,3.4-20.8c3.4-9.6,9.6-16.9,18.6-22.5
					c7.9-4.5,16.3-6.7,25.3-8.4c7.9-1.1,15.7-1.1,23.6-1.1c6.2,0,12.4,1.1,18.6,2.8c2.2,0.6,5.1,1.7,7.3,2.8
					c9.6,5.1,11.2,14.1,4.5,21.9c-0.6,0.6-1.1,0.6-1.7,1.1c-1.1-0.6-2.2-0.6-3.4-1.1c-7.3-3.4-15.2-5.6-23.6-6.2
					c-8.4-0.6-16.3,0-24.2,1.7c-11.8,2.2-20.2,10.1-21.4,24.7c0,2.2,0,4.5,0,6.7c0,22.5,0,45.5,0,68
					C1195.7,207.2,1195.7,209.5,1195.2,211.7z">
     </path>
     <path id="path14" inkscape:connector-curvature="0" class="st0" d="M1121.5,211.2c-1.7-3.4-1.1-5.6-1.1-8.4
					c0-35.4,0-70.8,0-106.3c0-1.7,0-3.4,0-4.5c0.6-7.3,3.9-11.2,11.2-11.8c3.4,0,7.3-0.6,10.7,1.1c3.4,1.1,3.4,1.7,3.9,5.1
					c0,1.1,0,2.2,0,3.4c0,37.7,0,75.3,0,113c0,8.4,0,8.4-7.9,8.4c-3.9,0-7.3,0-11.2,0C1124.9,211.2,1123.2,211.2,1121.5,211.2z">
     </path>
     <path id="path16" inkscape:connector-curvature="0" class="st0" d="M1085.5,211.2c-2.2,0-4.5,0-7.3,0c-1.7,0-2.8-1.1-3.4-2.8
					c-1.1-3.4-2.8-7.3-3.9-10.7c-3.4-9.6-6.7-19.1-9.6-28.7c-0.6-1.7-1.1-3.4-1.7-5.1c-2.2-6.7-7.3-9.6-14.1-10.1
					c-1.1,0-2.2,0-3.4,0c-16.9,0-33.7,0-51.2,0c-2.2,0-5.1,0.6-7.3,1.1c-4.5,1.1-7.3,3.9-9,7.9c-0.6,1.7-1.1,2.8-1.7,4.5
					c-4.5,12.4-8.4,24.7-12.9,37.1c-2.2,7.3-1.7,6.7-10.1,6.7c-2.8,0-5.1,0-7.9,0c-5.1-0.6-8.4-5.1-6.7-10.1
					c0.6-2.2,1.7-4.5,2.2-6.7c16.9-43.3,33.7-86.6,51.2-129.9c3.4-8.4,6.7-16.9,10.1-25.3c0.6-1.7,1.7-3.9,2.2-5.1
					c7.9-12.4,26.4-11.8,33.2,1.1c1.1,1.7,1.7,3.4,2.2,5.6c20.2,51.7,40.5,104,61.3,156.3c1.1,2.2,1.7,4.5,1.7,6.7
					c0.6,4.5-2.8,7.9-7.3,8.4C1090,211.2,1087.8,211.2,1085.5,211.2L1085.5,211.2L1085.5,211.2z M1015.8,137.5c6.2,0,11.8,0,18,0
					c1.1,0,2.8,0,3.9,0c4.5-0.6,7.3-3.9,7.3-8.4c0-1.1-0.6-2.8-1.1-3.9c-7.3-19.7-14.6-39.4-21.4-59c-0.6-1.1-1.1-2.2-1.7-3.4
					c-2.2-2.8-5.6-2.8-7.9,0c-0.6,1.1-1.1,2.2-1.7,3.9c-7.3,19.1-14.6,38.8-21.9,57.9c-0.6,2.2-1.1,3.9-1.1,6.2
					c0.6,2.8,2.8,5.6,5.6,6.2c1.1,0,2.8,0,3.9,0C1004,137.5,1009.6,137.5,1015.8,137.5z">
     </path>
     <path id="path18" inkscape:connector-curvature="0" class="st0" d="M711.6,163.4c0-11.8,0-23.1,0-34.9c0-8.4,2.2-15.7,6.7-23.1
					c5.6-10.1,14.6-15.7,25.3-19.1c6.7-2.2,14.1-2.8,20.8-2.8s13.5,0.6,19.7,2.8c7.9,2.2,15.2,6.2,20.8,12.4c5.1,5.6,7.9,4.5,12.4,0
					c9-9.6,20.8-14.1,33.7-14.6c9.6-0.6,18.6,0,27.5,2.8c15.2,5.1,25.3,14.6,29.2,29.8c1.1,3.9,1.7,8.4,1.7,12.9
					c0,24.2,0,48.4,0,72.5c0,0.6,0,1.7,0,2.2c0,3.4-1.7,5.1-5.1,5.1c-5.6,0-11.2,0-17.4,0c-3.4,0-3.9-0.6-3.9-3.9c0-1.7,0-3.4,0-4.5
					c0-20.2,0-40.5,0-61.3c0-5.1-0.6-10.1-2.2-15.2c-1.7-5.6-5.1-9.6-10.1-12.4c-11.8-6.7-28.1-5.6-38.2,3.9
					c-5.1,4.5-7.3,10.1-8.4,16.9c-0.6,4.5-1.1,9-1.1,13.5c0,18.6,0,36.5,0,55.1c0,7.9-1.1,8.4-8.4,8.4c-4.5,0-8.4,0-12.9,0
					c-3.9,0-4.5-0.6-4.5-4.5c0-1.7,0-3.4,0-4.5c0-16.9,0-33.7,0-50.6c0-5.1,0-10.1-0.6-15.2c-1.7-12.4-7.3-20.8-19.7-24.7
					c-8.4-2.8-16.3-2.2-24.2,1.1c-9,3.9-13.5,11.8-14.6,21.4c-0.6,5.1-0.6,9.6-0.6,14.6c0,18,0,36,0,54c0,9,0,9-9,9
					c-3.9,0-8.4,0-12.4,0c-2.8,0-3.9-1.1-4.5-4.5c0-1.7,0-3.4,0-4.5C711.6,187.6,711.6,175.2,711.6,163.4L711.6,163.4L711.6,163.4z">
     </path>
     <path id="path20" inkscape:connector-curvature="0" class="st0" d="M582.3,112.2c-9-7.3-7.9-18,1.7-23.1
					c5.6-3.4,12.4-4.5,18.6-5.1c9-0.6,18-0.6,26.4,0c10.1,0.6,19.7,2.8,28.1,7.9c14.1,7.3,20.8,19.7,22.5,34.9
					c0.6,3.4,0.6,6.2,0.6,9.6c0,21.9,0,43.3,0,65.2c0,7.9,0,7.9-8.4,8.4c-6.7,0.6-13.5,1.1-20.2,1.7c-1.1,0-1.7,0-2.8,0
					c-12.4,0-24.7,0.6-37.1,0c-9.6-0.6-19.1-2.8-28.1-6.7c-3.9-1.7-7.3-3.9-10.1-7.3c-2.8-2.8-5.1-6.2-6.7-10.7
					c-3.4-10.1-3.4-20.8,0.6-30.9c2.2-6.7,6.7-11.2,12.9-15.2c6.2-3.9,13.5-5.6,20.8-6.7c6.2-1.1,12.4-1.1,18.6-1.1
					c9.6,0,19.1,0,29.2,1.1c5.6,0.6,6.7-0.6,5.6-6.2c-2.2-12.9-9.6-20.8-23.1-22.5c-9.6-1.7-19.7-1.7-29.2,0
					c-4.5,0.6-9,2.2-13.5,4.5C586.3,110.5,584.6,111.1,582.3,112.2z M653.7,190.9c0-0.6,0.6-1.1,0.6-1.7c0-10.7,0-21.4,0-32
					c0-2.2-1.1-3.4-3.4-3.9c-3.9-0.6-8.4-1.1-12.4-1.7c-7.3,0-14.1,0-21.4,0c-4.5,0-8.4,1.1-12.9,2.2c-10.1,3.4-15.7,13.5-12.9,24.2
					c1.1,5.6,4.5,9.6,9.6,11.8c2.8,1.1,6.2,2.2,9.6,2.8c12.4,2.2,24.2,1.7,36.5,0C649.8,192.6,652.1,192,653.7,190.9L653.7,190.9z">
     </path>
     <path id="path22" inkscape:connector-curvature="0" class="st0" d="M539,207.8c-1.7,0.6-2.2,0.6-2.8,0.6c-6.7,0-12.9,0-19.7,0
					c-2.8,0-3.4-0.6-3.4-3.4c0-1.1,0-2.8,0-3.9c0-51.7,0-103.5,0-155.2c0-2.8,0.6-5.6,0.6-8.4c0.6-4.5,3.9-6.7,7.9-7.9
					c4.5-1.1,9.6-1.1,14.1,0.6c2.8,1.1,3.4,1.7,3.9,4.5c0,1.7,0,3.4,0,4.5c0,53.4,0,107.4,0,160.8C539,202.7,539,205,539,207.8z">
     </path>
     <path id="path24" inkscape:connector-curvature="0" class="st0" d="M453.6,134.7c1.7-10.1-2.2-20.2-11.2-24.7
					c-2.8-1.7-6.2-2.8-9.6-3.4c-9.6-2.2-19.1-2.2-28.7-1.1c-6.7,1.1-12.9,2.8-19.1,6.2c-1.1,0.6-1.7,0.6-2.8,1.1
					c-7.3-5.6-8.4-15.7-1.1-21.4c2.2-1.7,5.1-3.4,7.9-3.9c5.1-1.7,10.1-2.8,15.7-2.8c7.3,0,14.6,0,21.9,0c8.4,0,16.3,1.7,24.2,5.1
					c8.4,3.4,16.3,8.4,21.4,16.3c5.1,7.3,7.9,15.7,7.9,24.7c0.6,8.4,0,17.4,0,25.9c0,14.6,0,29.8,0,44.4c0,1.7,0,3.4,0,4.5
					c0,2.8-1.1,3.9-4.5,4.5c-3.4,0.6-7.3,1.1-10.7,1.1c-18,1.7-36.5,2.2-54.5,1.1c-9-0.6-18.6-2.8-27-6.7
					c-12.9-6.2-19.1-16.3-19.1-29.8c0-4.5,0-9.6,1.1-14.1c2.2-9,7.3-15.7,15.2-20.2c6.2-3.4,12.9-5.1,19.7-6.2
					c7.9-1.1,15.2-1.1,23.1-1.1s15.7-0.6,23.6,1.1C450.2,134.7,451.9,134.7,453.6,134.7z M453.6,191.5c1.7-2.8,1.7-5.1,1.7-7.3
					c0-7.9,0-15.7,0-23.6c0-1.1,0-2.2,0-3.4c-0.6-2.8-1.1-3.4-3.4-3.9c-4.5-0.6-8.4-1.1-12.9-1.7c-6.2,0-12.4,0-19.1,0
					c-3.9,0-7.3,0.6-11.2,1.1c-10.1,2.2-17.4,8.4-16.9,21.9c0.6,6.2,3.4,10.7,8.4,14.1c2.2,1.1,4.5,2.2,6.7,2.8
					c5.6,1.7,11.8,2.2,17.4,2.2c6.7,0,14.1,0,20.8-1.1C448,192.6,450.8,192,453.6,191.5z">
     </path>
     <path id="path26" inkscape:connector-curvature="0" class="st0" d="M210.1,171.2c1.7,0.6,2.8,1.1,3.9,1.7
					c11.2,6.2,23.6,10.7,36.5,12.4c5.6,1.1,11.2,1.7,16.9,1.7c7.9,0.6,16.3-0.6,24.2-2.2c4.5-1.1,8.4-2.8,11.8-5.1
					c11.2-7.9,12.9-28.1-1.1-36c-5.6-3.4-11.8-4.5-18-6.2c-12.9-2.2-25.9-4.5-38.2-7.3c-7.9-1.7-15.2-3.9-21.9-7.9
					c-6.7-3.9-12.9-8.4-16.9-15.2c-3.4-5.1-5.1-10.7-5.6-16.9c-0.6-6.2-0.6-12.4,1.1-18.6c2.8-11.2,9.6-19.7,19.1-25.9
					c7.3-4.5,15.2-7.3,23.6-9c9-1.7,18.6-2.2,27.5-1.7c9.6,0,18.6,0.6,27.5,2.8c7.9,1.7,15.2,3.9,21.9,8.4c2.8,1.7,5.1,3.9,7.3,6.2
					c3.4,3.4,3.9,7.3,2.8,11.8c-1.7,4.5-3.9,8.4-7.9,11.2c-0.6-0.6-1.1-0.6-1.7-0.6c-9.6-7.3-20.2-11.2-31.5-14.1
					c-9.6-2.2-19.7-2.8-29.2-2.2c-5.1,0.6-10.1,1.7-15.2,2.2c-1.1,0-2.2,0.6-3.4,1.1c-10.7,4.5-15.7,12.4-14.1,23.6
					c0.6,4.5,2.8,8.4,6.7,11.8c3.4,2.2,6.7,3.9,10.7,5.6c6.2,2.2,12.9,3.4,19.7,4.5c11.8,2.2,23.6,4.5,35.4,7.3
					c7.9,1.7,15.7,5.1,23.1,9.6c11.8,7.3,17.4,18,18,31.5c0.6,8.4-0.6,16.3-4.5,24.2c-5.6,11.2-14.6,19.1-26.4,23.6
					c-8.4,3.4-17.4,5.6-27,6.2c-3.4,0-7.3,1.1-10.7,1.1c-20.8,0-40.5-3.4-59.6-11.2c-2.8-1.1-5.6-2.8-8.4-3.9
					c-4.5-2.2-7.3-5.6-4.5-12.9C203.4,179.1,206.2,175.2,210.1,171.2z">
     </path>
    </g>
    <g id="g38">
     <path id="path30" inkscape:connector-curvature="0" class="st1" d="M677.4,60.5c-1.7,1.1-2.8,1.7-3.4,2.2
					c-2.2,1.7-5.1,2.2-7.9,2.8c-6.7,0.6-14.1,0.6-20.8,0c-1.7,0-3.4-0.6-5.1-1.1c-1.7-0.6-3.4-2.2-3.9-4.5c-0.6-2.2,0-4.5,2.8-6.2
					c2.8,0.6,5.6,2.8,9,1.7c1.7-1.7,1.1-3.4,1.1-5.1c0-7.3,0-15.2,0-22.5c0-2.2,0-4.5,0.6-6.7c0.6-2.8,1.7-3.9,4.5-3.9
					c1.7,0,3.4,0,5.6,1.1c0,1.1,0.6,2.8,0.6,5.1c0,7.9,0,15.2,0,23.1c0,1.7,0,3.4,0,4.5c0,3.9,1.7,5.1,5.6,4.5
					c2.8-0.6,5.1-2.2,5.6-5.6c0.6-2.2,0.6-5.1,0.6-7.9c0-9.6,0-19.1,0-29.2c0-1.7,0-3.4,0-4.5c0.6-2.8,1.7-4.5,4.5-4.5
					c1.1,0,2.2,0,2.8,0s1.7,0.6,2.2,0.6c1.1,2.2,0.6,4.5,0.6,7.3c0,10.1,0,20.8,0,30.9c0,1.7,0,3.9,0.6,5.6c0.6,4.5,2.8,6.7,7.3,7.3
					c1.1,0,2.8,0,3.9,0c21.4,0,43.3,0,64.7,0c1.7,0,3.4,0,5.1-0.6c3.9-0.6,6.2-2.8,6.7-6.2c0.6-1.7,0.6-3.4,0.6-5.1
					c0-4.5,0-8.4,0-12.9c0-1.1,0-2.8,0-3.9c0-1.1,1.1-2.2,2.2-2.2c2.2-0.6,4.5-0.6,7.3,0.6c0,1.1,0.6,2.8,0.6,4.5
					c0,4.5,0,9.6,0,14.1c0,2.2,0.6,4.5,1.1,6.7c1.1,3.4,3.4,5.1,7.3,5.1c3.4,0,6.2-1.1,7.3-4.5c0.6-2.2,1.1-3.9,1.1-6.2
					c0-4.5,0-9.6,0-14.1c0-1.1,0-2.2,0-3.4c0-1.7,1.1-2.8,2.8-2.8c2.2,0,4.5,0,6.2,0c1.7,1.7,1.7,3.4,1.7,4.5c0,4.5,0,8.4,0,12.9
					c0,2.8,0,5.1,0.6,7.9c0.6,3.4,3.4,5.6,7.3,6.2c3.9,0,6.7-1.1,7.9-4.5c0.6-1.7,0.6-3.4,0.6-5.1c0-5.1,0-10.1,0-14.6
					c0-1.1,0-2.8,0-3.9c0-1.1,1.1-2.2,2.2-2.2c2.8-0.6,5.1-0.6,7.9,0.6c0,1.1,0.6,2.8,0.6,4.5c0,4.5,0,8.4,0,12.9c0,1.7,0,3.4,0,4.5
					c0.6,5.6,2.8,8.4,8.4,8.4c8.4,0,16.9,0,24.7,0c5.6,0,7.9-2.8,8.4-7.9c0-2.2,0-4.5,0-6.7c0-8.4,0-17.4,0-25.9c0-2.2,0-4.5,0-6.7
					c0-2.8,1.7-4.5,4.5-4.5c1.1,0,2.2,0,3.4,0c1.1,0,2.2,1.1,2.2,2.2s0,2.2,0,3.4c0,12.4,0,24.7,0,37.1c0,1.7,0,3.4,0,4.5
					c0,6.2-5.6,11.8-11.8,12.9c-2.8,0.6-5.6,0.6-8.4,0.6c-5.1,0-10.7,0-15.7,0c-0.6,0-1.7,0-2.2,0c-6.7,0-14.1-0.6-19.7-5.6
					c-4.5,2.8-9,5.1-14.1,5.1s-9.6-1.7-13.5-5.1c-9.6,7.3-18.6,7.3-27,0.6c-0.6,0-0.6,0-1.1,0c-5.1,3.9-11.2,5.1-17.4,5.1
					c-5.6,0-11.2,0-16.3,0c-14.1,0-27.5,0-41.6,0.6c-1.1,0-2.8,0-3.9,0C689.7,66.1,683,65.5,677.4,60.5L677.4,60.5z">
     </path>
     <path id="path32" inkscape:connector-curvature="0" class="st1" d="M597,33.5c0.6-0.6,0.6-0.6,1.1-0.6c5.6-9,14.6-9.6,23.6-7.9
					c7.9,1.7,11.2,7.3,11.2,12.9c0,4.5,0,9.6,0,14.1c0,7.3-6.2,12.4-12.4,12.9c-3.9,0.6-7.3,0.6-11.2,0c-6.7-1.1-11.2-5.1-12.4-11.8
					c-0.6-1.7,0-3.4-0.6-4.5c-1.1-5.1-5.6-7.9-10.7-6.2c-2.8,1.1-4.5,3.4-5.1,6.2c-0.6,1.7,0,3.9,0,5.6c0,2.2,0,4.5,0,7.3
					c0,3.4-1.1,3.9-4.5,4.5c-0.6,0-1.7,0-2.2,0c-2.8,0-3.9-1.1-3.9-3.9c0-5.1-0.6-10.1,0-14.6c0.6-7.9,5.1-12.4,12.4-14.6
					c3.4-0.6,6.7-1.1,10.7,0C594.1,32.9,595.3,32.9,597,33.5z M607.6,44.7c0,1.7,0,3.4,0.6,5.1c0.6,3.4,2.8,5.1,6.2,5.6
					c3.9,0.6,6.7-1.1,7.9-4.5c1.1-3.9,1.1-7.9,0-12.4c-1.1-3.4-3.9-5.1-7.9-4.5c-3.4,0.6-5.6,2.2-6.2,5.6
					C607.6,41.4,607.6,43.1,607.6,44.7z">
     </path>
     <path id="path34" inkscape:connector-curvature="0" class="st1" d="M906.7,65c-3.9,1.1-6.7,1.1-10.1,0c0-1.1-0.6-2.8-0.6-3.9
					c0-16.3,0-32.6,0-48.9c0-0.6,0-1.7,0-2.2c0.6-4.5,5.6-7.3,9.6-4.5c0.6,0.6,1.1,1.1,1.1,1.7c0,1.1,0,2.2,0,3.4
					c0,16.3,0,33.2,0,49.5C907.3,61.6,907.3,63.3,906.7,65L906.7,65z">
     </path>
     <path id="path36" inkscape:connector-curvature="0" class="st1" d="M1132.8,66.7l-15.2-15.2c-0.6-0.6-0.6-1.1,0-1.7l15.2-15.2
					c0.6-0.6,1.1-0.6,1.7,0l15.2,15.2c0.6,0.6,0.6,1.1,0,1.7l-15.2,15.2C1133.9,67.2,1133.3,67.2,1132.8,66.7z">
     </path>
    </g>
   </g>
   <g id="g108">
    <linearGradient id="path57_1_" gradientUnits="userSpaceOnUse" x1="-98.4188" y1="-190.7014" x2="-56.2362" y2="-190.7014" gradientTransform="matrix(0.6623 0 0 -0.6623 67.2744 56.6373)">
     <stop offset="0" style="stop-color:#00AACB">
     </stop>
     <stop offset="0.2524" style="stop-color:#00A7C8">
     </stop>
     <stop offset="0.4552" style="stop-color:#009EBE">
     </stop>
     <stop offset="0.6406" style="stop-color:#008EAD">
     </stop>
     <stop offset="0.8158" style="stop-color:#017895">
     </stop>
     <stop offset="0.9823" style="stop-color:#015C77">
     </stop>
     <stop offset="1" style="stop-color:#015973">
     </stop>
    </linearGradient>
    <path id="path57" inkscape:connector-curvature="0" class="st2" d="M60,124.6c0,1.1,0.6,1.7,1.7,2.2
				c11.2,11.2,23.1,23.1,34.3,34.3c6.7,6.7,11.2,14.6,15.2,23.1c2.8,6.2,5.6,12.9,7.3,19.7c0.6,1.7,0.6,3.9,1.1,6.2
				c1.1,2.8,1.1,6.2,1.7,9c0.6,3.9,1.1,7.9,1.1,11.8c0,3.4,0,6.2,0,9.6v0.6c0,0.6,0,1.7-0.6,2.2c-1.1,0.6-1.7-0.6-2.2-1.1
				c-5.1-5.1-10.7-10.7-15.7-15.7c-11.8-11.8-23.6-23.6-35.4-35.4c-8.4-8.4-16.9-17.4-25.9-25.9c-12.9-12.9-25.3-25.3-38.2-38.2
				c-0.6-0.6-2.2-1.1-1.1-2.2c1.7-0.6,4.5-1.1,6.7-1.1c9-1.1,18.6-1.1,27.5-0.6c3.4,0,6.7,0,9.6,0.6C51.6,123.5,55.5,124,60,124.6z">
    </path>
    <linearGradient id="path74_1_" gradientUnits="userSpaceOnUse" x1="-98.2516" y1="-14.5481" x2="-56.2026" y2="-14.5481" gradientTransform="matrix(0.6623 0 0 -0.6623 67.2744 56.6373)">
     <stop offset="0" style="stop-color:#D5DD26">
     </stop>
     <stop offset="0.2404" style="stop-color:#D2DB27">
     </stop>
     <stop offset="0.4335" style="stop-color:#C8D429">
     </stop>
     <stop offset="0.6101" style="stop-color:#B7C82E">
     </stop>
     <stop offset="0.7769" style="stop-color:#9FB834">
     </stop>
     <stop offset="0.9355" style="stop-color:#81A33B">
     </stop>
     <stop offset="1" style="stop-color:#72993F">
     </stop>
    </linearGradient>
    <path id="path74" inkscape:connector-curvature="0" class="st3" d="M60,124.6c-3.9-0.6-8.4-1.1-12.4-1.7
				c-3.4-0.6-6.7-0.6-9.6-0.6c-9.6,0-18.6-0.6-28.1,1.1c-2.8,0.6-5.1,0.6-7.9,1.7c-0.6-0.6,0-0.6,0-0.6c2.8-2.8,6.2-6.2,9-9
				s5.6-5.6,8.4-7.9c2.8-2.8,5.6-6.2,9-9c1.7-1.7,3.4-3.4,5.1-5.1c4.5-4.5,9-9,12.9-13.5C52.7,74,58.9,67.8,65.6,61
				c10.7-10.7,21.4-21.4,32-32c6.7-6.7,13.5-13.5,20.2-20.2l0.6-0.6c0.6-0.6,1.1-1.1,1.7-0.6c0.6,0,1.1,1.1,1.1,1.7
				c0,1.7,0,3.9,0,5.6c0,5.6,0,11.2-0.6,16.9s-1.7,10.7-2.8,15.7c-1.7,6.7-3.9,12.9-6.7,19.1c-5.1,11.2-12.4,20.2-21.4,28.7
				c-9.6,9.6-19.1,19.1-28.7,28.7C60.6,124,60,124,60,124.6z">
    </path>
    <linearGradient id="path87_1_" gradientUnits="userSpaceOnUse" x1="78.4432" y1="-134.4461" x2="85.0653" y2="-122.9762" gradientTransform="matrix(0.6623 0 0 -0.6623 67.2744 56.6373)">
     <stop offset="0" style="stop-color:#00AACB">
     </stop>
     <stop offset="0.1857" style="stop-color:#00A2C2">
     </stop>
     <stop offset="0.4884" style="stop-color:#008BAA">
     </stop>
     <stop offset="0.8684" style="stop-color:#016782">
     </stop>
     <stop offset="1" style="stop-color:#015973">
     </stop>
    </linearGradient>
    <path id="path87" inkscape:connector-curvature="0" class="st4" d="M156.7,124c0.6,0,0.6,0.6,1.1,0.6c0.6,0.6,0.6,1.1,0,1.7
				c-1.7,1.7-3.9,3.4-5.6,5.6c-3.4,3.4-6.7,6.7-10.1,10.1c-2.8,2.8-5.6,5.6-9,9c-1.7,1.7-2.8,1.7-4.5,0
				c-7.9-7.9-16.3-15.7-24.2-24.2c-0.6-0.6-1.7-1.7,0-2.2c3.9,0.6,7.9-1.1,11.8-2.2c3.9-1.1,7.9-2.2,11.8-3.4
				c7.9-1.7,15.7-1.7,23.1,1.7c1.7,0.6,2.8,1.7,4.5,2.2l0,0C156.2,124,156.2,124,156.7,124z">
    </path>
    <linearGradient id="path104_1_" gradientUnits="userSpaceOnUse" x1="56.5119" y1="-83.3763" x2="74.6246" y2="-83.3763" gradientTransform="matrix(0.6623 0 0 -0.6623 67.2744 56.6373)">
     <stop offset="0" style="stop-color:#72993F">
     </stop>
     <stop offset="6.451863e-02" style="stop-color:#81A33B">
     </stop>
     <stop offset="0.2231" style="stop-color:#9FB834">
     </stop>
     <stop offset="0.3899" style="stop-color:#B7C82E">
     </stop>
     <stop offset="0.5665" style="stop-color:#C8D429">
     </stop>
     <stop offset="0.7596" style="stop-color:#D2DB27">
     </stop>
     <stop offset="1" style="stop-color:#D5DD26">
     </stop>
    </linearGradient>
    <path id="path104" inkscape:connector-curvature="0" class="st5" d="M156.2,123.5c-1.7-0.6-2.8-1.7-4.5-2.2
				c-7.3-3.4-15.2-3.4-23.1-1.7c-3.9,1.1-7.9,2.2-11.8,3.4s-7.9,2.2-11.8,2.2c1.7-2.2,3.4-3.9,5.6-5.6c6.2-6.7,12.9-12.9,19.7-19.7
				c1.7-1.7,1.7-1.7,2.8,0c7.3,7.9,14.6,15.2,22.5,22.5C155.6,122.9,156.2,122.9,156.2,123.5z">
    </path>
    <path id="path106" inkscape:connector-curvature="0" class="st6" d="M156.7,124c0,0-0.6,0-0.6-0.6
				C156.2,123.5,156.2,124,156.7,124z">
    </path>
   </g>
  </g>
 </g>
</svg>